<svg xmlns="http://www.w3.org/2000/svg" width="16" height="16" viewBox="0 0 16 16" fill="none">
  <path d="M3 4.25C3 3.83579 3.33579 3.5 3.75 3.5H12.25C12.6642 3.5 13 3.83579 13 4.25C13 4.66421 12.6642 5 12.25 5H3.75C3.33579 5 3 4.66421 3 4.25ZM3 8C3 7.58579 3.33579 7.25 3.75 7.25H12.25C12.6642 7.25 13 7.58579 13 8C13 8.41421 12.6642 8.75 12.25 8.75H3.75C3.33579 8.75 3 8.41421 3 8ZM3.75 11C3.33579 11 3 11.3358 3 11.75C3 12.1642 3.33579 12.5 3.75 12.5H12.25C12.6642 12.5 13 12.1642 13 11.75C13 11.3358 12.6642 11 12.25 11H3.75Z" fill="#424242"/>
</svg>
